<svg width="33" height="38" viewBox="0 0 33 38" fill="none" xmlns="http://www.w3.org/2000/svg">
<path d="M8.81948 29.8129C12.4843 31.4977 17.9693 31.0602 20.5541 30.7225C21.2526 30.6313 21.8609 31.2486 21.7322 31.9413L21.0962 35.3635C20.927 36.2737 21.9382 36.865 22.6134 36.2317C25.8835 33.1644 32 26.5677 32 20.1372C32 13.284 29.3794 8.70831 22.7939 6.2132C18.8652 4.72471 14.1503 4.29141 8.81948 6.74009C2.67503 9.56251 0.279807 14.5012 1.18509 20.3546C1.90125 24.9852 4.37448 27.7693 8.81948 29.8129Z" fill="#2B2A28" stroke="#2B2A28"/>
<path d="M19.9157 30.6026C20.42 30.5441 20.8005 30.117 20.8005 29.6092V24.1388C23.2987 24.1388 24.4649 23.6109 25.8732 22.5172C27.2911 21.4146 28 19.9119 28 18.0091C28 16.7553 27.6769 15.6394 27.0306 14.6613C26.3844 13.6743 25.4584 12.9141 24.2527 12.3805C23.0567 11.847 21.6677 11.5803 20.0859 11.5803H19.3027C17.748 11.5803 16.4876 12.7422 16.4876 14.1754V15.6227H20.187C21.2576 15.6405 22.2474 15.8889 22.6953 16.3214C23.1432 16.754 23.4166 17.1524 23.4713 18.0349C23.4713 18.9596 23.3123 19.6718 22.7046 20.1698C22.1066 20.6677 21.2337 20.9167 20.0859 20.9167H18.4546C17.3682 20.9167 16.4876 21.7285 16.4876 22.73V29.8774C16.4876 30.4753 17.0088 30.9396 17.6028 30.8707L19.9157 30.6026Z" fill="#F8D548"/>
<path d="M6.81512 20.4198C5.26037 20.4198 4 19.2579 4 17.8246V3.59519C4 2.16193 5.26037 1.00004 6.81512 1.00004H11.3788C12.7161 1.00004 14.8274 0.983397 16.2169 1.63219C17.2606 2.11949 18.1658 3.09612 18.4004 5.49165C18.4932 6.43922 18.1008 7.54067 17.5703 8.2698C17.0398 8.99003 16.2594 9.17958 15.3142 9.51747C16.9387 9.767 18.2968 10.8078 18.9238 11.5636C19.5507 12.3194 19.6546 13.6175 19.6546 14.7112C19.6546 16.5785 19.0084 17.9923 17.7159 18.9526C16.4234 19.9129 14.5811 20.402 12.189 20.4198H6.81512ZM8.34047 11.9636V17.2054H12.0588C13.0812 17.2054 13.877 16.9831 14.4461 16.5385C15.0248 16.085 15.3142 15.4626 15.3142 14.6712C15.3142 12.8928 14.3159 11.9903 12.3192 11.9636H8.34047ZM8.34047 8.2698H11.3788C13.5683 8.23423 14 7.23268 14 6C14 5.11971 13.379 4.74953 13 4.5C12.3504 4.16729 12.5748 4.24111 11.3788 4.24111H8.34047V8.2698Z" fill="#F8D548"/>
<path d="M19.9157 30.6026C20.42 30.5441 20.8005 30.117 20.8005 29.6092V24.1388C23.2987 24.1388 24.4649 23.6109 25.8732 22.5172C27.2911 21.4146 28 19.9119 28 18.0091C28 16.7553 27.6769 15.6394 27.0306 14.6613C26.3844 13.6743 25.4584 12.9141 24.2527 12.3805C23.0567 11.847 21.6677 11.5803 20.0859 11.5803H19.3027C17.748 11.5803 16.4876 12.7422 16.4876 14.1754V15.6227H20.187C21.2576 15.6405 22.2474 15.8889 22.6953 16.3214C23.1432 16.754 23.4166 17.1524 23.4713 18.0349C23.4713 18.9596 23.3123 19.6718 22.7046 20.1698C22.1066 20.6677 21.2337 20.9167 20.0859 20.9167H18.4546C17.3682 20.9167 16.4876 21.7285 16.4876 22.73V29.8774C16.4876 30.4753 17.0088 30.9396 17.6028 30.8707L19.9157 30.6026Z" stroke="#F8D548" stroke-width="0.5"/>
<path d="M6.81512 20.4198C5.26037 20.4198 4 19.2579 4 17.8246V3.59519C4 2.16193 5.26037 1.00004 6.81512 1.00004H11.3788C12.7161 1.00004 14.8274 0.983397 16.2169 1.63219C17.2606 2.11949 18.1658 3.09612 18.4004 5.49165C18.4932 6.43922 18.1008 7.54067 17.5703 8.2698C17.0398 8.99003 16.2594 9.17958 15.3142 9.51747C16.9387 9.767 18.2968 10.8078 18.9238 11.5636C19.5507 12.3194 19.6546 13.6175 19.6546 14.7112C19.6546 16.5785 19.0084 17.9923 17.7159 18.9526C16.4234 19.9129 14.5811 20.402 12.189 20.4198H6.81512ZM8.34047 11.9636V17.2054H12.0588C13.0812 17.2054 13.877 16.9831 14.4461 16.5385C15.0248 16.085 15.3142 15.4626 15.3142 14.6712C15.3142 12.8928 14.3159 11.9903 12.3192 11.9636H8.34047ZM8.34047 8.2698H11.3788C13.5683 8.23423 14 7.23268 14 6C14 5.11971 13.379 4.74953 13 4.5C12.3504 4.16729 12.5748 4.24111 11.3788 4.24111H8.34047V8.2698Z" stroke="#F8D548" stroke-width="0.5"/>
</svg>
