<svg width="321" height="199" viewBox="0 0 321 199" fill="none" xmlns="http://www.w3.org/2000/svg">
<path d="M52.7934 76.9186H44.7366V101.308H52.7934V76.9186Z" fill="#666666"/>
<path d="M269.619 75.6489H261.562V101.451H269.619V75.6489Z" fill="#666666"/>
<path d="M321 190.204V195.703L256.579 196.295L255.893 196.308L231.408 196.532L230.823 196.541L223.381 196.604H223.161L177.797 197.023L103.331 197.712H103.267L84.3335 197.89L84.13 197.894L0 198.664V192.319L19.7816 180.475L59.4719 180.145L60.32 180.141L60.5999 180.137L61.448 180.124L80.5044 179.968L81.3567 179.963L81.6281 179.959L82.4762 179.955L88.5867 179.904L88.7478 179.9L103.823 179.773H103.945L221.575 178.783L224.454 178.762H224.742L226.939 178.741L242.904 178.61L243.752 178.597L244.537 178.589H244.944L249.909 178.551L250.893 178.538L252.212 178.53L256.346 178.491L262.906 178.436L263.754 178.428L265.23 178.42H265.506L297.186 178.149L321 190.204Z" fill="#65617D"/>
<path opacity="0.2" d="M321 190.204V195.703L256.579 196.295L255.893 196.308L231.408 196.532L230.823 196.541L223.381 196.604H223.161L177.797 197.023L103.331 197.712H103.267L84.3335 197.89L84.13 197.894L0 198.664V192.319L19.7816 180.475L59.4719 180.145L60.32 180.141L60.5999 180.137L61.448 180.124L80.5044 179.968L81.3567 179.963L81.6281 179.959L82.4762 179.955L88.5867 179.904L88.7478 179.9L103.823 179.773H103.945L221.575 178.783L224.454 178.762H224.742L226.939 178.741L242.904 178.61L243.752 178.597L244.537 178.589H244.944L249.909 178.551L250.893 178.538L252.212 178.53L256.346 178.491L262.906 178.436L263.754 178.428L265.23 178.42H265.506L297.186 178.149L321 190.204Z" fill="#2B2A28"/>
<path d="M80.5681 169.059V179.418C80.5683 179.908 80.429 180.389 80.1663 180.804C79.9036 181.219 79.5283 181.551 79.084 181.761C78.7531 181.921 78.3915 182.008 78.0239 182.015L63.2248 182.328C62.8296 182.337 62.4376 182.255 62.0799 182.087C61.6277 181.88 61.2447 181.548 60.9763 181.131C60.7079 180.713 60.5655 180.227 60.566 179.731V169.059H80.5681Z" fill="#666666"/>
<path opacity="0.1" d="M80.5681 169.059V179.418C80.5683 179.908 80.429 180.389 80.1663 180.804C79.9036 181.219 79.5283 181.551 79.084 181.761C78.7531 181.921 78.3915 182.008 78.0239 182.015L63.2248 182.328C62.8296 182.337 62.4376 182.255 62.0799 182.087C61.6277 181.88 61.2447 181.548 60.9763 181.131C60.7079 180.713 60.5655 180.227 60.566 179.731V169.059H80.5681Z" fill="#2B2A28"/>
<path d="M81.4163 169.059V179.418C81.4165 179.908 81.2771 180.389 81.0144 180.804C80.7517 181.219 80.3764 181.551 79.9321 181.761C79.6013 181.921 79.2396 182.008 78.872 182.015L64.0729 182.328C63.6777 182.337 63.2857 182.255 62.928 182.087C62.4759 181.88 62.0928 181.548 61.8244 181.131C61.5561 180.713 61.4137 180.227 61.4142 179.731V169.059H81.4163Z" fill="#666666"/>
<path d="M263.754 169.059H243.752V182.383H263.754V169.059Z" fill="#666666"/>
<path opacity="0.1" d="M263.754 169.059H243.752V182.383H263.754V169.059Z" fill="#2B2A28"/>
<path d="M262.906 169.059H242.904V182.383H262.906V169.059Z" fill="#666666"/>
<path opacity="0.1" d="M52.7934 76.9146V79.3383L44.7366 79.1311V76.9146H52.7934Z" fill="#2B2A28"/>
<path d="M105.824 8.63423L96.1432 78.0052C96.0818 78.4483 95.8588 78.8533 95.517 79.1428C95.1752 79.4323 94.7383 79.586 94.2901 79.5745L16.7752 77.5695L15.3037 77.5314C15.0475 77.5254 14.7955 77.4655 14.5641 77.3557C14.3326 77.246 14.127 77.0888 13.9605 76.8944C13.7941 76.7001 13.6706 76.4729 13.5981 76.2277C13.5256 75.9825 13.5057 75.7248 13.5397 75.4714L24.4079 2.85192C24.478 2.4021 24.7146 1.99482 25.071 1.71054C25.4274 1.42626 25.8778 1.28565 26.3331 1.31645L104.128 6.57002C104.379 6.58453 104.624 6.65078 104.848 6.7646C105.072 6.87841 105.27 7.03731 105.43 7.23127C105.589 7.42523 105.706 7.65004 105.774 7.89152C105.842 8.13299 105.859 8.38588 105.824 8.63423Z" fill="#65617D"/>
<path d="M29.6109 6.41764L21.4142 70.4292L92.6533 72.6838L101.414 10.9267L29.6109 6.41764Z" fill="#FFF4C6"/>
<path d="M202.624 5.42744H120.356C119.108 5.42744 118.096 6.43684 118.096 7.682V76.4904C118.096 77.7355 119.108 78.7449 120.356 78.7449H202.624C203.873 78.7449 204.884 77.7355 204.884 76.4904V7.682C204.884 6.43684 203.873 5.42744 202.624 5.42744Z" fill="#65617D"/>
<path d="M201.064 10.3638H122.192V71.4144H201.064V10.3638Z" fill="#FFF4C6"/>
<path opacity="0.1" d="M269.619 75.6449V77.248L261.562 77.413V75.6449H269.619Z" fill="#2B2A28"/>
<path d="M305.972 74.2922C305.983 74.4674 305.959 74.6432 305.901 74.8089C305.843 74.9746 305.751 75.1268 305.632 75.2564C305.514 75.386 305.37 75.4903 305.209 75.563C305.049 75.6358 304.876 75.6754 304.7 75.6796L225.319 77.3166C224.989 77.3234 224.669 77.2055 224.423 76.9866C224.177 76.7677 224.023 76.464 223.992 76.1364L217.169 5.37805C217.152 5.2025 217.171 5.02537 217.225 4.85738C217.279 4.6894 217.366 4.53406 217.482 4.40078C217.598 4.2675 217.74 4.15904 217.899 4.082C218.058 4.00495 218.231 3.96092 218.407 3.95256L297.186 0.0441021L298.034 0.00180014C298.371 -0.0159178 298.702 0.0976985 298.957 0.318671C299.211 0.539644 299.37 0.850698 299.399 1.18619L305.972 74.2922Z" fill="#65617D"/>
<path d="M221.702 8.11009L293.649 4.58232L299.726 68.8773L228.347 70.5693L221.702 8.11009Z" fill="#FFF4C6"/>
<path opacity="0.1" d="M305.972 74.2921C305.983 74.4674 305.959 74.6432 305.901 74.8089C305.843 74.9746 305.751 75.1268 305.632 75.2564C305.514 75.386 305.37 75.4903 305.209 75.563C305.049 75.6357 304.876 75.6754 304.7 75.6796L297.186 0.0441021L298.034 0.00180014C298.371 -0.0159178 298.702 0.0976984 298.957 0.318671C299.211 0.539643 299.37 0.850697 299.399 1.18619L305.972 74.2921Z" fill="#2B2A28"/>
<path opacity="0.1" d="M26.3458 1.31197L16.7752 77.5693L15.3037 77.5312C15.0475 77.5251 14.7955 77.4653 14.5641 77.3555C14.3326 77.2458 14.127 77.0886 13.9605 76.8942C13.7941 76.6998 13.6706 76.4726 13.5981 76.2275C13.5256 75.9823 13.5057 75.7246 13.5397 75.4712L24.4079 2.85168C24.4772 2.39874 24.7152 1.98856 25.0745 1.70311C25.4337 1.41766 25.8878 1.27797 26.3458 1.31197Z" fill="#2B2A28"/>
<path opacity="0.1" d="M52.7934 94.0833H44.7366V101.308H52.7934V94.0833Z" fill="#2B2A28"/>
<path opacity="0.1" d="M81.4163 169.055V171.157L61.4142 171.69V169.055H81.4163Z" fill="#2B2A28"/>
<path d="M116.718 96.6006V167.748C116.712 168.182 116.54 168.598 116.236 168.909C115.932 169.22 115.52 169.403 115.085 169.419L33.8173 171.576H33.7961C33.3535 171.571 32.9307 171.393 32.6178 171.081C32.3048 170.769 32.1266 170.347 32.1211 169.905V96.6006C32.1266 96.1591 32.3048 95.7373 32.6178 95.4252C32.9307 95.113 33.3535 94.9352 33.7961 94.9297H115.043C115.485 94.9352 115.908 95.113 116.221 95.4252C116.534 95.7373 116.712 96.1591 116.718 96.6006Z" fill="#65617D"/>
<path opacity="0.1" d="M33.8173 94.9297V171.576H33.7961C33.3536 171.571 32.9307 171.393 32.6178 171.081C32.3048 170.769 32.1266 170.347 32.1211 169.905V96.6006C32.1266 96.1591 32.3048 95.7373 32.6178 95.4252C32.9307 95.113 33.3536 94.9352 33.7961 94.9297H33.8173Z" fill="#2B2A28"/>
<path d="M37.5278 99.4721H112.795V162.181L37.5278 163.873V99.4721Z" fill="#F2F2F2"/>
<path opacity="0.1" d="M269.619 94.0833H261.562V101.452H269.619V94.0833Z" fill="#2B2A28"/>
<path opacity="0.1" d="M262.906 169.055V171.766L242.904 171.233V169.055H262.906Z" fill="#2B2A28"/>
<path d="M289.303 96.6006V169.905C289.297 170.35 289.116 170.775 288.799 171.088C288.481 171.401 288.053 171.576 287.607 171.576L206.322 169.419C205.887 169.403 205.475 169.22 205.171 168.909C204.867 168.598 204.695 168.182 204.689 167.748V96.6006C204.695 96.1591 204.873 95.7373 205.186 95.4252C205.499 95.113 205.922 94.9352 206.364 94.9297H287.611C288.056 94.9308 288.483 95.1067 288.8 95.4193C289.117 95.7319 289.297 96.1562 289.303 96.6006Z" fill="#65617D"/>
<path opacity="0.1" d="M289.303 96.6006V169.905C289.297 170.35 289.116 170.775 288.799 171.088C288.481 171.401 288.053 171.576 287.607 171.576V94.9297C288.053 94.9297 288.481 95.1051 288.799 95.4178C289.116 95.7306 289.297 96.1555 289.303 96.6006Z" fill="#2B2A28"/>
<path d="M283.896 99.4721H208.629V162.181L283.896 163.873V99.4721Z" fill="#F2F2F2"/>
<path d="M202.586 96.6006V167.748C202.581 168.182 202.409 168.598 202.105 168.909C201.801 169.22 201.389 169.403 200.954 169.419L119.686 171.576C119.24 171.576 118.811 171.401 118.494 171.088C118.176 170.775 117.995 170.35 117.99 169.905V96.6006C117.995 96.1591 118.173 95.7373 118.486 95.4252C118.799 95.113 119.222 94.9352 119.665 94.9297H200.911C201.354 94.9352 201.777 95.113 202.089 95.4252C202.402 95.7373 202.581 96.1591 202.586 96.6006Z" fill="#65617D"/>
<path d="M123.396 99.4721H198.664V162.181L123.396 163.873V99.4721Z" fill="#F2F2F2"/>
<path opacity="0.1" d="M321 190.204V195.703L256.579 196.295L255.893 196.308L231.408 196.532L230.823 196.541L223.381 196.604H223.161L177.797 197.023L103.331 197.712H103.267L84.3335 197.89L84.13 197.894L0 198.664V192.319L85.8728 191.757H86.0763L103.458 191.638H103.538L223.576 190.847H223.699L223.771 190.843H223.971L226.002 190.83H226.621L258.208 190.619L260.074 190.61L260.489 190.606L321 190.204Z" fill="#2B2A28"/>
<path d="M161.628 101.308C173.649 101.308 183.394 91.5875 183.394 79.5962C183.394 67.6048 173.649 57.8839 161.628 57.8839C149.607 57.8839 139.862 67.6048 139.862 79.5962C139.862 91.5875 149.607 101.308 161.628 101.308Z" fill="#DEB58F"/>
<path d="M183.398 124.011C183.398 124.011 141.206 129.087 145.235 124.011C146.693 122.175 147.096 116.735 147.016 110.538C146.99 108.656 146.922 106.706 146.825 104.765C146.358 95.4587 145.235 86.3643 145.235 86.3643C145.235 86.3643 182.126 69.0216 177.886 82.7689C176.19 88.3228 176.745 96.1228 178.034 103.445C178.412 105.581 178.848 107.675 179.306 109.663C180.424 114.512 181.79 119.301 183.398 124.011Z" fill="#DEB58F"/>
<path opacity="0.1" d="M183.398 124.011C183.398 124.011 141.206 129.087 145.235 124.011C146.693 122.175 147.096 116.735 147.016 110.539C153.448 107.798 161.632 109.841 161.632 109.841C170.249 108.127 175.774 108.462 179.306 109.663C180.424 114.512 181.79 119.301 183.398 124.011Z" fill="#2B2A28"/>
<path d="M103.314 198.19V197.835L177.784 197.027L223.157 196.604H223.284L223.237 197.23L223.301 196.604H223.381V196.532L223.962 190.843L224.183 188.69L224.251 188.017L224.31 187.455L226.93 178.737L229.551 170.032L231.756 162.701L235.123 151.5C235.123 151.5 233.215 147.059 232.155 145.79C231.095 144.521 230.034 135.85 230.034 135.85C230.034 135.85 220.985 127.25 217.029 126.26C215.371 125.837 212.097 125.275 208.62 124.568C207.319 124.306 205.983 124.027 204.698 123.722C203.973 123.557 203.26 123.384 202.578 123.21C201.249 122.879 199.94 122.476 198.655 122.001C197.982 121.757 197.341 121.431 196.747 121.032C193.63 118.752 185.82 118.494 185.519 118.494C185.518 118.484 185.518 118.474 185.519 118.465V118.426C185.529 118.249 185.529 118.071 185.519 117.893C185.519 117.724 185.519 117.525 185.48 117.301C185.48 117.234 185.48 117.162 185.451 117.09C185.43 116.937 185.404 116.777 185.366 116.608C185.353 116.532 185.336 116.457 185.315 116.383C185.192 115.874 185.014 115.379 184.785 114.907C184.755 114.839 184.717 114.768 184.683 114.7C184.475 114.309 184.234 113.937 183.962 113.587C183.907 113.515 183.848 113.439 183.784 113.367C183.437 112.959 183.051 112.585 182.631 112.251C182.516 112.162 182.398 112.069 182.275 111.984C182.206 111.929 182.134 111.878 182.058 111.832L181.681 111.587L181.329 111.384C181.019 111.214 180.693 111.049 180.337 110.893C180.226 110.842 180.108 110.796 179.989 110.749C179.87 110.703 179.684 110.631 179.527 110.571H179.501L179.183 110.445C178.942 110.364 178.696 110.292 178.437 110.22L178.043 110.119L177.619 110.022L177.195 109.933C176.771 109.848 176.317 109.772 175.842 109.713L175.358 109.654L174.862 109.603L174.349 109.56L173.62 109.518L172.772 109.489C169.031 109.488 165.302 109.884 161.645 110.669C159.105 110.105 156.503 109.866 153.902 109.958H153.533L153.109 109.983H152.838L152.291 110.034C152.108 110.034 151.922 110.072 151.739 110.098C151.557 110.123 151.366 110.144 151.184 110.174L150.904 110.22C150.628 110.267 150.348 110.318 150.056 110.377C149.963 110.394 149.869 110.415 149.776 110.44C149.407 110.521 149.038 110.618 148.674 110.728C148.491 110.779 148.309 110.838 148.127 110.901C148.033 110.927 147.944 110.961 147.855 110.994L147.584 111.092L147.317 111.197L146.999 111.324C146.837 111.392 146.681 111.464 146.524 111.54C146.435 111.578 146.346 111.62 146.261 111.667C146.176 111.714 146.087 111.752 146.006 111.798C145.048 112.292 144.161 112.916 143.373 113.651L143.157 113.858L142.945 114.074C142.873 114.146 142.805 114.222 142.737 114.298C142.461 114.599 142.203 114.917 141.965 115.25C141.897 115.339 141.834 115.427 141.77 115.52C141.501 115.916 141.257 116.329 141.041 116.756C140.986 116.857 140.935 116.963 140.884 117.064C140.538 117.779 140.254 118.522 140.036 119.285C139.957 119.567 139.885 119.849 139.82 120.131C139.82 120.131 130.843 124.082 123.396 126.941C121.416 127.703 119.55 128.392 117.99 128.912C117.536 129.065 117.112 129.204 116.718 129.335C115.862 129.644 114.972 129.848 114.067 129.945C113.641 129.952 113.216 129.991 112.795 130.063C109.373 130.617 103.509 133.024 102.868 135.439C102.817 135.632 102.802 135.833 102.826 136.031C102.826 136.031 102.826 136.061 102.826 136.078C103.25 139.039 100.282 138.616 100.282 138.616C100.282 138.616 99.2217 146.441 97.7376 148.556C96.6648 150.079 95.9312 153.476 95.8379 156.039C95.7846 156.838 95.8474 157.64 96.0245 158.42C96.0245 158.442 96.0245 158.463 96.0245 158.48C96.1941 159.047 95.787 160.595 95.0958 162.579C94.3453 164.757 93.2512 167.464 92.1996 170.019C90.6137 173.877 89.1211 177.379 89.0278 178.149C88.9896 178.492 88.8793 179.105 88.7267 179.896C88.1076 183.119 86.7337 189.257 86.0552 191.74C85.5506 193.592 84.817 196.13 84.3124 197.873C84.3124 197.924 84.2827 197.975 84.27 198.021L103.28 197.835V198.19H103.339H103.314Z" fill="#F8D548"/>
<path opacity="0.1" d="M110.251 148.332C110.251 148.332 134.421 160.811 143.114 159.33L110.251 148.332Z" fill="#2B2A28"/>
<path opacity="0.1" d="M159.44 143.256C159.44 143.256 182.974 150.87 190.819 151.928C198.664 152.985 159.44 143.256 159.44 143.256Z" fill="#2B2A28"/>
<path opacity="0.1" d="M185.544 118.758C173.247 121.016 150.094 120.53 140.087 120.187C143.755 107.075 161.641 111.533 161.641 111.533C183.78 107.125 185.476 116.27 185.544 118.758Z" fill="#2B2A28"/>
<path d="M185.544 117.911C173.247 120.17 150.094 119.683 140.087 119.341C143.755 106.228 161.641 110.686 161.641 110.686C183.78 106.279 185.476 115.424 185.544 117.911Z" fill="#F8D548"/>
<path d="M250.821 175.721C250.821 175.721 265.306 173.5 265.59 179.845C265.874 186.19 258.203 190.623 258.203 190.623L250.821 175.721Z" fill="#DEB58F"/>
<path opacity="0.1" d="M178.034 103.445C177.411 103.723 176.774 103.968 176.126 104.181C171.555 105.754 166.945 107.341 162.132 107.916C157.32 108.491 152.269 107.984 148.071 105.589C147.63 105.341 147.206 105.066 146.799 104.765C146.333 95.4587 145.209 86.3643 145.209 86.3643C145.209 86.3643 182.101 69.0216 177.86 82.7689C176.173 88.3228 176.745 96.1228 178.034 103.445Z" fill="#2B2A28"/>
<path d="M155.657 45.659C155.052 45.8184 154.418 45.8345 153.805 45.706C153.193 45.5775 152.619 45.3079 152.129 44.9187L153.011 46.1412C152.492 46.201 151.965 46.1468 151.468 45.9824C150.972 45.818 150.517 45.5474 150.136 45.1894C150.056 46.2838 150.102 47.3836 150.272 48.4676C148.813 48.5379 147.376 48.0881 146.218 47.1987C146.196 47.5803 146.291 47.9596 146.491 48.2856C146.691 48.6116 146.987 48.8685 147.338 49.0218C145.872 48.8471 144.392 49.2104 143.175 50.044C141.958 50.8776 141.086 52.1245 140.723 53.552L142.936 53.7551C141.197 54.1257 139.635 55.0759 138.509 56.4495C137.831 57.2955 137.313 58.3784 137.61 59.4105C137.907 60.4426 139.34 61.1024 140.121 60.3664C139.011 61.6878 138.204 63.2355 137.757 64.9008C137.31 66.5661 137.234 68.3087 137.534 70.0065C137.735 70.7299 137.801 71.4841 137.729 72.2314C137.589 72.9294 137.148 73.5342 136.928 74.2153C136.503 75.4504 136.906 76.7913 137.284 78.0222L139.272 84.5447C139.993 86.9008 140.71 89.2611 141.651 91.5411C142.318 92.9825 142.885 94.4679 143.348 95.9867C143.882 98.034 143.903 100.276 145.044 102.065C145.825 103.191 146.87 104.11 148.088 104.743C152.282 107.137 157.349 107.644 162.15 107.069C166.95 106.494 171.555 104.908 176.122 103.334C177.136 103.029 178.11 102.603 179.022 102.065C182.181 100.001 182.885 95.7795 183.475 92.0613C184.132 87.916 185.01 83.7791 186.566 79.8791C187.49 77.5569 188.686 75.2008 188.483 72.7136C188.224 69.41 185.603 66.7325 184.955 63.4839C184.737 62.398 184.747 61.2791 184.984 60.1972C185.185 59.5527 185.298 58.8839 185.319 58.2092C185.247 56.8471 184.128 55.7981 183.076 54.9225C180.795 53.0219 178.44 51.2256 176.011 49.5336C175.889 48.6876 177.042 48.3238 177.563 47.6555C178.301 46.7122 177.538 45.2148 176.419 44.7749C175.299 44.335 174.044 44.6226 172.878 44.9145C172.954 44.3191 172.835 43.7151 172.539 43.1924C172.244 42.6697 171.787 42.2562 171.236 42.0133C170.686 41.7705 170.072 41.7113 169.485 41.8446C168.899 41.9778 168.371 42.2964 167.98 42.753C167.67 42.0446 167.176 41.4323 166.548 40.9799C165.92 40.5274 165.181 40.2516 164.41 40.1812C161.598 39.9612 161.543 42.1058 159.745 43.286C157.947 44.4661 156.463 42.9095 155.081 41.7759C154.827 42.4167 154.746 43.1129 154.848 43.7945C154.949 44.4761 155.228 45.1192 155.657 45.659Z" fill="#666666"/>
<path d="M261.562 188.411C261.562 188.411 261.185 189.308 260.489 190.606C259.437 192.604 258.156 194.473 256.673 196.177L256.558 196.3H255.871L231.387 196.524H230.802L230.73 196.439L225.981 190.818L224.191 188.698L224.119 188.61L223.966 188.432L223.882 188.33L223.771 188.199L220.29 184.079L221.562 178.792L223.729 169.884L223.784 169.668L224.208 167.976L224.509 166.707L225.518 162.57L228.979 148.336L235.127 151.509L241.611 162.93L245.092 169.063H247C247.361 169.063 248.188 169.757 249.019 170.556C249.316 170.84 249.612 171.14 249.867 171.402C250.622 172.181 251.22 172.849 251.22 172.849C251.22 172.849 254.311 172.917 255.142 175.345C255.185 175.462 255.22 175.582 255.248 175.704C255.524 176.658 255.883 177.587 256.321 178.479C256.868 179.668 257.555 181.017 258.25 182.366C259.543 184.841 260.858 187.197 261.341 188.051L261.401 188.157L261.562 188.411Z" fill="#F8D548"/>
<path opacity="0.1" d="M225.137 169.313L225.094 169.918V169.96L225.022 170.933L224.458 178.762L223.776 188.195L223.581 190.852L223.157 196.537V196.609L177.784 197.032L103.326 197.835V198.191H103.267V197.835V197.717L103.458 191.643L103.823 179.773L104.136 169.71L104.166 168.708C104.185 168.103 104.327 167.508 104.583 166.959C104.84 166.411 105.206 165.92 105.66 165.518C106.113 165.115 106.643 164.809 107.219 164.618C107.795 164.427 108.404 164.355 109.009 164.406C111.01 164.575 113.609 164.782 116.718 165.002L117.99 165.095C135.94 166.339 169.112 167.946 202.586 165.941C203.29 165.903 203.998 165.861 204.706 165.81C209.897 165.485 215.083 165.066 220.218 164.541C220.867 164.474 221.523 164.548 222.14 164.761C222.757 164.973 223.32 165.318 223.789 165.771C224.258 166.224 224.622 166.774 224.855 167.382C225.087 167.99 225.184 168.642 225.137 169.292V169.313Z" fill="#2B2A28"/>
<path d="M103.314 198.19V197.835L177.784 197.027L223.156 196.604H223.284V196.532L223.708 190.847L223.89 188.309L224.585 178.745L225.132 171.174V170.988C225.158 170.639 225.142 170.288 225.086 169.943C225.088 169.929 225.088 169.915 225.086 169.901C224.969 169.187 224.678 168.513 224.238 167.938C223.771 167.341 223.159 166.872 222.46 166.576C221.761 166.28 220.998 166.166 220.243 166.246C215.108 166.77 209.922 167.189 204.732 167.515C204.024 167.566 203.315 167.608 202.612 167.646C169.138 169.63 135.965 168.023 118.015 166.8L116.743 166.707C113.635 166.487 111.035 166.284 109.034 166.111C107.933 166.018 106.836 166.335 105.956 167.002C105.076 167.668 104.474 168.636 104.268 169.719C104.225 169.948 104.199 170.18 104.191 170.412L103.903 179.786L103.509 191.659L103.322 197.734V197.852V198.207L103.314 198.19Z" fill="#666666"/>
<path opacity="0.1" d="M225.264 172.278L224.742 178.763L223.966 188.428L223.771 190.848L223.347 196.266L223.322 196.537V196.609L223.258 197.235L223.305 196.609H223.182L177.809 197.032L103.326 197.835V197.717L103.534 191.643L103.958 179.774L104.23 171.885C104.243 171.436 104.369 170.998 104.595 170.61C104.822 170.222 105.142 169.897 105.527 169.664C106.007 169.37 106.569 169.237 107.13 169.283C108.02 169.355 109.114 169.44 110.391 169.533C112.464 169.685 115.021 169.863 117.998 170.049C123.511 170.396 130.427 170.768 138.352 171.073C160.402 171.919 190.17 172.202 218.445 169.732C219.717 169.622 221.032 169.499 222.317 169.376C222.825 169.326 223.338 169.423 223.793 169.656C223.921 169.72 224.043 169.796 224.157 169.884C224.526 170.151 224.819 170.51 225.005 170.925C225.049 171.007 225.084 171.093 225.111 171.183C225.239 171.533 225.291 171.906 225.264 172.278Z" fill="#2B2A28"/>
<path opacity="0.1" d="M81.4163 178.069V179.418C81.4165 179.909 81.2771 180.39 81.0144 180.804C80.7517 181.219 80.3764 181.551 79.9321 181.762L62.928 182.087C62.4759 181.881 62.0928 181.549 61.8244 181.131C61.5561 180.713 61.4137 180.227 61.4142 179.731V178.462L81.4163 178.069Z" fill="#2B2A28"/>
<path d="M81.6282 182.556L59.472 182.979V179.312L81.6282 178.889V182.556Z" fill="#666666"/>
<path opacity="0.1" d="M81.6282 182.556L59.472 182.979V179.312L81.6282 178.889V182.556Z" fill="#2B2A28"/>
<path d="M82.4761 182.556L60.3199 182.979V179.312L82.4761 178.889V182.556Z" fill="#666666"/>
<g opacity="0.1">
<path opacity="0.1" d="M155.831 44.2718C155.417 43.7349 155.142 43.1043 155.03 42.436C154.928 43.0894 154.989 43.7577 155.208 44.3818C155.418 44.3624 155.627 44.3256 155.831 44.2718Z" fill="#2B2A28"/>
<path opacity="0.1" d="M150.446 47.0804C150.366 46.5619 150.313 46.0394 150.289 45.5154C150.289 46.0356 150.289 46.5602 150.289 47.0847L150.446 47.0804Z" fill="#2B2A28"/>
<path opacity="0.1" d="M185.005 61.1957C185.029 60.8189 185.08 60.4442 185.158 60.0748C185.358 59.4314 185.473 58.7643 185.497 58.091C185.488 57.9398 185.465 57.7898 185.429 57.6426C185.357 58.0317 185.243 58.4209 185.158 58.8058C184.989 59.5905 184.937 60.396 185.005 61.1957Z" fill="#2B2A28"/>
<path opacity="0.1" d="M176.185 48.1252L176.647 48.4593C177.037 48.1782 177.402 47.864 177.737 47.5203C177.897 47.3001 177.996 47.0421 178.024 46.7719C178.052 46.5017 178.009 46.2289 177.898 45.9806C177.856 46.0771 177.802 46.1681 177.737 46.2513C177.216 46.9196 176.062 47.2876 176.185 48.1252Z" fill="#2B2A28"/>
<path opacity="0.1" d="M141.342 52.1943C141.187 52.5028 141.064 52.8259 140.973 53.1587C141.636 52.7894 142.351 52.52 143.093 52.3593L141.342 52.1943Z" fill="#2B2A28"/>
<path opacity="0.1" d="M147.189 47.5922C146.911 47.4391 146.644 47.2652 146.392 47.0719C146.381 47.2392 146.394 47.4072 146.43 47.571C146.683 47.559 146.937 47.566 147.189 47.5922Z" fill="#2B2A28"/>
<path opacity="0.1" d="M188.648 72.5149C188.474 74.5664 187.516 76.5418 186.74 78.4875C185.183 82.3875 184.306 86.5244 183.648 90.674C183.059 94.3921 182.376 98.6136 179.196 100.674C178.287 101.215 177.314 101.641 176.3 101.943C171.729 103.52 167.119 105.102 162.306 105.678C157.494 106.253 152.443 105.749 148.245 103.355C147.028 102.722 145.983 101.803 145.201 100.678C144.068 98.8885 144.047 96.6467 143.504 94.5994C143.042 93.0792 142.475 91.5924 141.808 90.1495C140.871 87.8738 140.15 85.4965 139.434 83.1574C138.769 80.9832 138.106 78.8076 137.445 76.6306C137.227 75.9757 137.065 75.3036 136.961 74.6214C136.796 75.7042 137.118 76.8379 137.445 77.8996C138.106 80.0794 138.769 82.255 139.434 84.4264C140.15 86.7824 140.871 89.1427 141.808 91.4184C142.475 92.8614 143.042 94.3481 143.504 95.8683C144.039 97.9156 144.06 100.157 145.201 101.947C145.983 103.072 147.028 103.991 148.245 104.624C152.443 107.018 157.506 107.522 162.306 106.947C167.107 106.371 171.712 104.789 176.3 103.212C177.314 102.91 178.287 102.484 179.196 101.943C182.355 99.8825 183.059 95.6611 183.648 91.943C184.306 87.7934 185.183 83.6565 186.74 79.7565C187.664 77.4385 188.86 75.0824 188.656 72.591C188.656 72.5656 188.648 72.5402 188.648 72.5149Z" fill="#2B2A28"/>
<path opacity="0.1" d="M137.894 70.8784C137.894 70.8784 137.894 70.8488 137.894 70.8319C137.971 70.086 137.905 69.3324 137.699 68.6112C137.615 68.147 137.559 67.678 137.534 67.2068C137.485 68.1013 137.541 68.9985 137.699 69.8802C137.767 70.2101 137.843 70.5443 137.894 70.8784Z" fill="#2B2A28"/>
<path opacity="0.1" d="M139.188 60.5317C139.514 59.9851 139.884 59.466 140.294 58.9793C139.518 59.7195 138.085 59.0597 137.784 58.0318C137.673 58.4475 137.673 58.885 137.784 59.3008C137.888 59.6111 138.073 59.8885 138.32 60.1046C138.566 60.3208 138.866 60.4681 139.188 60.5317Z" fill="#2B2A28"/>
</g>
<path opacity="0.1" d="M245.096 169.059C245.096 169.059 246.441 173.923 245.096 178.153C243.752 182.383 245.096 169.059 245.096 169.059Z" fill="#2B2A28"/>
<path opacity="0.1" d="M250.821 174.02C250.821 174.02 251.385 180.196 250.113 181.292C248.841 182.387 250.821 174.02 250.821 174.02Z" fill="#2B2A28"/>
<path d="M39.3893 109.502L82.4762 109.079" stroke="#F8D548" stroke-width="2" stroke-miterlimit="10"/>
<path d="M39.3893 114.777L82.4762 114.358" stroke="#F8D548" stroke-width="2" stroke-miterlimit="10"/>
<path d="M39.3893 120.056L82.4762 119.633" stroke="#F8D548" stroke-width="2" stroke-miterlimit="10"/>
</svg>
